<mxfile host="app.diagrams.net" modified="2023-08-27T15:00:18.647Z" agent="Mozilla/5.0 (X11; Ubuntu; Linux x86_64; rv:109.0) Gecko/20100101 Firefox/116.0" etag="RnJb40CQD4gBXS2_c2aD" version="21.6.9" type="device">
  <diagram name="PÃ¡gina-1" id="4Zgo0IUxcaAbGARyPmpu">
    <mxGraphModel dx="1434" dy="766" grid="1" gridSize="10" guides="1" tooltips="1" connect="1" arrows="1" fold="1" page="1" pageScale="1" pageWidth="827" pageHeight="1169" math="0" shadow="0">
      <root>
        <mxCell id="0" />
        <mxCell id="1" parent="0" />
        <mxCell id="jGw6-l2iVleldYacMnZM-1" value="DisciplinaManager" style="swimlane;fontStyle=1;align=center;verticalAlign=top;childLayout=stackLayout;horizontal=1;startSize=26;horizontalStack=0;resizeParent=1;resizeParentMax=0;resizeLast=0;collapsible=1;marginBottom=0;whiteSpace=wrap;html=1;" vertex="1" parent="1">
          <mxGeometry x="60" y="40" width="370" height="170" as="geometry" />
        </mxCell>
        <mxCell id="jGw6-l2iVleldYacMnZM-2" value="&lt;u&gt;- disciplinas : Set&amp;lt;Disciplinas&amp;gt;&lt;/u&gt;" style="text;strokeColor=none;fillColor=none;align=left;verticalAlign=top;spacingLeft=4;spacingRight=4;overflow=hidden;rotatable=0;points=[[0,0.5],[1,0.5]];portConstraint=eastwest;whiteSpace=wrap;html=1;" vertex="1" parent="jGw6-l2iVleldYacMnZM-1">
          <mxGeometry y="26" width="370" height="26" as="geometry" />
        </mxCell>
        <mxCell id="jGw6-l2iVleldYacMnZM-3" value="" style="line;strokeWidth=1;fillColor=none;align=left;verticalAlign=middle;spacingTop=-1;spacingLeft=3;spacingRight=3;rotatable=0;labelPosition=right;points=[];portConstraint=eastwest;strokeColor=inherit;" vertex="1" parent="jGw6-l2iVleldYacMnZM-1">
          <mxGeometry y="52" width="370" height="8" as="geometry" />
        </mxCell>
        <mxCell id="jGw6-l2iVleldYacMnZM-4" value="&lt;div&gt;- adicionarDisciplinaNoSistema(disciplina:Disciplina): void&lt;br&gt;&lt;/div&gt;&lt;div&gt;- removerDisciplinaDoSistema(disciplina: Disciplina): void&lt;/div&gt;&lt;div&gt;- renomearDisciplina(disciplina: Disciplina, novoNome: String): void&lt;/div&gt;&lt;div&gt;- adicionarDisciplinaNoSistema( dados: String[]) : void&lt;/div&gt;&lt;div&gt;- carregarDisciplina( path: String) : void&lt;/div&gt;&lt;div&gt;- findDisciplina( id: String): Disciplina&lt;br&gt;&lt;/div&gt;" style="text;strokeColor=none;fillColor=none;align=left;verticalAlign=top;spacingLeft=4;spacingRight=4;overflow=hidden;rotatable=0;points=[[0,0.5],[1,0.5]];portConstraint=eastwest;whiteSpace=wrap;html=1;" vertex="1" parent="jGw6-l2iVleldYacMnZM-1">
          <mxGeometry y="60" width="370" height="110" as="geometry" />
        </mxCell>
        <mxCell id="jGw6-l2iVleldYacMnZM-5" value="UsuarioManager" style="swimlane;fontStyle=1;align=center;verticalAlign=top;childLayout=stackLayout;horizontal=1;startSize=26;horizontalStack=0;resizeParent=1;resizeParentMax=0;resizeLast=0;collapsible=1;marginBottom=0;whiteSpace=wrap;html=1;" vertex="1" parent="1">
          <mxGeometry x="60" y="260" width="370" height="150" as="geometry" />
        </mxCell>
        <mxCell id="jGw6-l2iVleldYacMnZM-6" value="&lt;u&gt;- pessoas : Set&amp;lt;Pessoa&amp;gt;&lt;/u&gt;" style="text;strokeColor=none;fillColor=none;align=left;verticalAlign=top;spacingLeft=4;spacingRight=4;overflow=hidden;rotatable=0;points=[[0,0.5],[1,0.5]];portConstraint=eastwest;whiteSpace=wrap;html=1;" vertex="1" parent="jGw6-l2iVleldYacMnZM-5">
          <mxGeometry y="26" width="370" height="26" as="geometry" />
        </mxCell>
        <mxCell id="jGw6-l2iVleldYacMnZM-7" value="" style="line;strokeWidth=1;fillColor=none;align=left;verticalAlign=middle;spacingTop=-1;spacingLeft=3;spacingRight=3;rotatable=0;labelPosition=right;points=[];portConstraint=eastwest;strokeColor=inherit;" vertex="1" parent="jGw6-l2iVleldYacMnZM-5">
          <mxGeometry y="52" width="370" height="8" as="geometry" />
        </mxCell>
        <mxCell id="jGw6-l2iVleldYacMnZM-8" value="- removerUsuarioDoSistema(pessoa: Pessoa): void&lt;div&gt;- renomearDisciplina(pessoa: Pessoa, novoNome: String): void&lt;/div&gt;&lt;div&gt;- adicionarDisciplinaNoSistema( dados: String[]) : void&lt;/div&gt;&lt;div&gt;- carregarUsuarios( path: String) : void&lt;/div&gt;&lt;div&gt;- findUsuario( id: String): Pessoa&lt;br&gt;&lt;/div&gt;" style="text;strokeColor=none;fillColor=none;align=left;verticalAlign=top;spacingLeft=4;spacingRight=4;overflow=hidden;rotatable=0;points=[[0,0.5],[1,0.5]];portConstraint=eastwest;whiteSpace=wrap;html=1;" vertex="1" parent="jGw6-l2iVleldYacMnZM-5">
          <mxGeometry y="60" width="370" height="90" as="geometry" />
        </mxCell>
        <mxCell id="jGw6-l2iVleldYacMnZM-9" value="UsuarioManager" style="swimlane;fontStyle=1;align=center;verticalAlign=top;childLayout=stackLayout;horizontal=1;startSize=26;horizontalStack=0;resizeParent=1;resizeParentMax=0;resizeLast=0;collapsible=1;marginBottom=0;whiteSpace=wrap;html=1;" vertex="1" parent="1">
          <mxGeometry x="60" y="450" width="370" height="80" as="geometry" />
        </mxCell>
        <mxCell id="jGw6-l2iVleldYacMnZM-11" value="" style="line;strokeWidth=1;fillColor=none;align=left;verticalAlign=middle;spacingTop=-1;spacingLeft=3;spacingRight=3;rotatable=0;labelPosition=right;points=[];portConstraint=eastwest;strokeColor=inherit;" vertex="1" parent="jGw6-l2iVleldYacMnZM-9">
          <mxGeometry y="26" width="370" height="8" as="geometry" />
        </mxCell>
        <mxCell id="jGw6-l2iVleldYacMnZM-12" value="&lt;div&gt;- cadastrarMatriculaEmAluno(dados: String[]): void&lt;/div&gt;&lt;div&gt;- carregarMatriculas(path: String) : void&lt;br&gt;&lt;/div&gt;" style="text;strokeColor=none;fillColor=none;align=left;verticalAlign=top;spacingLeft=4;spacingRight=4;overflow=hidden;rotatable=0;points=[[0,0.5],[1,0.5]];portConstraint=eastwest;whiteSpace=wrap;html=1;" vertex="1" parent="jGw6-l2iVleldYacMnZM-9">
          <mxGeometry y="34" width="370" height="46" as="geometry" />
        </mxCell>
      </root>
    </mxGraphModel>
  </diagram>
</mxfile>
